PathFileType	4	(X/Y/Z)	KinectSkeleton.trc																																																	
DataRate	CameraRate	NumFrames	NumMarkers	Units	OrigDataRate	OrigDataStartFrame	OrigNumFrames																																													
60	60	26	17	mm	60	124	300																																													
Frame#	Time	Neck			ShoulderMid			R.Shoulder			L.Shoulder			R.Elbow			L.Elbow			R.Wrist			L.Wrist			HipCenter			R.Hip			L.Hip			R.Knee			L.Knee			R.Ankle			L.Ankle			R.Foot			L.Foot		
		X1	Y1	Z1	X2	Y2	Z2	X3	Y3	Z3	X4	Y4	Z4	X5	Y5	Z5	X6	Y6	Z6	X7	Y7	Z7	X8	Y8	Z8	X9	Y9	Z9	X10	Y10	Z10	X11	Y11	Z11	X12	Y12	Z12	X13	Y13	Z13	X14	Y14	Z14	X15	Y15	Z15	X16	Y16	Z16	X17	Y17	Z17
																																																				
124	8.569	-1352.23	1470.062	627.896	-1352.23	1470.062	627.896	-1298.921	1369.317	766.121	-1425.46	1440.943	457.328	-1292.929	1125.52	917.748	-1406.086	1431.968	176.305	-1187.233	923.197	990.361	-1201.866	1540.087	125.729	-1389.649	929.47	541.28	-1366.994	914.867	620.686	-1414.773	945.665	453.221	-1349.634	510.863	567.571	-1180.473	672.83	259.921	-1464.66	134.081	550.841	-1109.492	301.64	162.789	-1323.821	29.184	542.986	-946.7	319.33	64.35
125	8.635	-1353.112	1467.802	634.524	-1353.112	1467.802	634.524	-1299.594	1362.86	769.508	-1426.37	1448.343	463.597	-1298.911	1114.171	912.794	-1406.141	1456.228	182.75	-1198.25	906.186	975.471	-1204.191	1569.633	135.317	-1387.584	929.324	536.841	-1366.57	913.827	616.482	-1410.887	946.51	448.522	-1348.51	509.504	567.862	-1169.044	681.219	254.465	-1461.08	132.132	552.669	-1100.785	310.091	155.974	-1319.025	29.103	544.073	-939.618	324.793	54.608
126	8.707	-1353.84	1468.806	642.503	-1353.84	1468.806	642.503	-1299.526	1358.118	773.404	-1422.415	1455.279	468.428	-1305.897	1105.706	911.595	-1417.032	1474.986	186.676	-1207.689	892.348	961.405	-1211.371	1590.198	161.285	-1386.726	931.119	532.635	-1367.313	914.561	612.72	-1408.254	949.481	443.822	-1345.298	508.803	568.05	-1166.325	686.169	244.782	-1462.811	131.801	551.837	-1094.926	312.475	154.108	-1320.483	28.21	544.285	-937.967	339.122	47.671
127	8.795	-1354.439	1469.857	649.954	-1354.439	1469.857	649.954	-1300.059	1353.818	777.536	-1426.366	1458.069	476.306	-1313.486	1096.927	908.513	-1423.663	1492.379	195.098	-1224.595	876.201	945.375	-1219.62	1612.197	171.649	-1390.775	932.499	531.692	-1368.497	914.525	610.978	-1415.48	952.433	443.768	-1340.863	507.823	567.218	-1161.989	708.533	232.338	-1464.786	131.615	552.529	-1078.457	334.883	147.141	-1321.556	28.448	544.383	-920.252	368.861	43.683
128	8.851	-1351.422	1464.077	655.531	-1351.422	1464.077	655.531	-1300.439	1342.378	778.959	-1427.531	1458.684	483.849	-1321.228	1082.357	901.121	-1428.541	1517.904	207.432	-1238.165	858.718	929.667	-1226.791	1640.994	186.447	-1391.724	929.669	531.685	-1369.916	911.812	610.934	-1415.908	949.471	443.801	-1343.115	506.478	562.534	-1155.539	720.075	226.31	-1462.981	129.729	551.79	-1078.506	345.661	142.264	-1320.612	25.978	544.297	-920.427	379.762	39.428
129	8.914	-1346.844	1458.747	662.33	-1346.844	1458.747	662.33	-1293.19	1333.312	779.885	-1425.597	1459.715	492.831	-1324.719	1073.027	896.38	-1434.764	1536.665	222.128	-1256.534	844.358	914.704	-1233.219	1659.744	213.05	-1391.857	930.183	525.743	-1367.607	910.239	603.417	-1418.749	952.3	439.605	-1336.982	505.929	562.996	-1150.766	736.624	220.367	-1461.379	132.268	553.266	-1084.025	360.475	142.679	-1319.188	29.598	544.05	-927.325	380.554	35.536
130	8.974	-1343.363	1456.694	669.13	-1343.363	1456.694	669.13	-1288.955	1325.691	781.422	-1425.833	1465.463	501.625	-1328.834	1062.066	889.551	-1441.099	1553.582	233.788	-1271.528	829.174	898.28	-1239.194	1677.53	227.492	-1395.616	929.224	525.782	-1368.554	908.493	602.573	-1425.626	952.213	440.624	-1337.951	502.998	562.357	-1148.557	760.918	208.29	-1459.536	127.234	552.857	-1093.341	379.548	142.356	-1315.392	26.999	538.893	-941.837	375.626	25.413
131	9.037	-1342.228	1455.151	675.098	-1342.228	1455.151	675.098	-1285.894	1322.438	784.886	-1428.337	1470.64	510.331	-1331.092	1057.529	889.254	-1443.37	1567.964	245.082	-1282.813	821.97	892.579	-1248.262	1703.16	238.129	-1397.657	928.295	527.567	-1369.92	907.167	604.193	-1428.416	951.725	442.592	-1333.543	502.343	554.763	-1153.959	768.213	199.678	-1459.053	126.923	552.607	-1074.041	392.284	123.892	-1313.626	27.339	543.786	-920.264	425.942	14.297
132	9.119	-1334.91	1453.648	682.891	-1334.91	1453.648	682.891	-1278.868	1316.868	788.893	-1426.515	1473.227	520.875	-1333.75	1049.925	885.603	-1452.478	1576.584	257.834	-1292.861	812.241	881.02	-1254.246	1708.629	254.917	-1401.247	929.58	524.151	-1370.001	905.995	598.973	-1435.896	955.734	441.177	-1327.98	500.842	546.368	-1158.046	782.005	192.857	-1454.917	124.616	547.956	-1067.915	404.537	131.29	-1307.605	26.774	540.109	-939.468	430.083	-9.66
133	9.173	-1330.763	1448.914	683.502	-1330.763	1448.914	683.502	-1272.045	1313.972	788.248	-1425.125	1471.395	525.045	-1332.777	1050.254	885.724	-1456.949	1577.048	265.204	-1304.073	812.269	875.307	-1261.724	1711.058	273.405	-1403.759	929.194	523.568	-1372.801	904.87	597.764	-1438.091	956.169	441.287	-1314.321	504.087	544.418	-1161.162	797.183	185.774	-1455.14	135.145	550.864	-1062.866	423.588	126.412	-1316.995	26.189	543.951	-920.028	464.132	5.669
134	9.237	-1327.089	1444.812	687.482	-1327.089	1444.812	687.482	-1263.252	1312	791.074	-1423.235	1468.378	530.82	-1331.096	1049.95	887.302	-1466.043	1576.747	274.071	-1309.559	811.826	871.17	-1268.219	1705.318	292.39	-1405.981	927.069	526.144	-1373.083	901.65	599.01	-1442.463	955.257	445.339	-1308.213	502.475	544.861	-1164.402	813.099	182.064	-1450.258	134.54	552.15	-1062.958	439.479	132.064	-1312.995	24.899	544.126	-932.898	472.34	-4.096
135	9.298	-1323.519	1443.148	688.321	-1323.519	1443.148	688.321	-1258.334	1309.386	789.305	-1419.885	1465.018	531.213	-1329.684	1049.725	887.836	-1472.206	1577.977	278.821	-1316.599	811.553	870.101	-1275.278	1707.057	297.486	-1405.549	927.289	526.399	-1372.857	901.759	599.137	-1441.803	955.601	445.735	-1307.517	503.427	545.113	-1161.859	818.492	182.968	-1450.862	136.773	551.431	-1058.564	446.508	130.348	-1314.361	26.652	544.241	-918.711	492.658	9.065
136	9.357	-1317.498	1438.918	690.193	-1317.498	1438.918	690.193	-1251.93	1306.748	791.778	-1417.792	1460.216	536.169	-1329.233	1049.614	889.928	-1473.884	1575.107	286.42	-1325.547	812.379	865.996	-1276.813	1703.262	300.317	-1409.7	926.453	529.256	-1376.313	899.709	600.944	-1446.726	956.11	449.757	-1306.941	503.601	544.891	-1164.054	841.61	181.059	-1450.693	138.398	551.896	-1059.485	469.066	146.84	-1317.599	25.051	543.946	-938.799	489.429	1.241
137	9.433	-1316.462	1437.241	690.427	-1316.462	1437.241	690.427	-1250.81	1305.371	791.882	-1418.568	1454.479	537.474	-1327.339	1049.067	890.141	-1479.36	1573.385	291.748	-1328.448	812.784	864.233	-1284.857	1704.555	299.564	-1410.858	925.869	532.589	-1375.876	898.671	603.022	-1449.652	956.032	454.48	-1301.688	505.308	543.349	-1163.819	856.734	185.052	-1445.968	141.743	553.456	-1065.721	485.694	133.733	-1316.218	25.565	543.658	-931.399	500.543	0.753
138	9.51	-1312.324	1434.248	691.093	-1312.324	1434.248	691.093	-1246.811	1302.496	791.12	-1416.697	1454.579	541.069	-1330.065	1050.383	891.463	-1481.823	1572.989	297.482	-1336.812	815.289	864.247	-1290.215	1706.962	297.622	-1412.076	926.209	532.431	-1377.355	898.865	602.548	-1450.582	956.533	454.675	-1299.056	507.808	543.831	-1160.57	862.816	190.167	-1447.485	147.717	557.64	-1053.692	495.319	142.573	-1324.024	25.92	547.114	-925.475	508.686	4.573
139	9.588	-1310.404	1434.629	689.544	-1310.404	1434.629	689.544	-1245.535	1302.641	790.302	-1415.757	1455.431	540.044	-1328.171	1049.709	890.527	-1486.372	1572.868	296.947	-1347.931	814.599	866.283	-1296.364	1709.78	293.891	-1412.865	925.905	532.629	-1379.183	898.587	603.434	-1450.217	956.199	454.108	-1304.889	506.298	542.832	-1156.944	862.08	192.255	-1449.98	144.126	557.302	-1040.911	497.202	140.559	-1322.259	26.279	547.565	-931.912	510.404	-13.5
140	9.649	-1311.757	1436.543	689.317	-1311.757	1436.543	689.317	-1247.737	1304.388	790.465	-1415.673	1457.224	538.998	-1333.582	1052.495	890.312	-1480.519	1575.841	294.985	-1356.139	817.581	867.494	-1289.329	1710.968	297.04	-1412.041	927.525	532.531	-1378.515	900.34	603.426	-1449.219	957.672	453.911	-1305.682	507.793	543.711	-1154.257	863.133	194.345	-1453.202	146.769	558.464	-1035.1	498.973	145.839	-1326.53	28.092	546.492	-938.683	508.669	-16.559
141	9.709	-1313.166	1441.863	690.908	-1313.166	1441.863	690.908	-1248.741	1307.829	790.296	-1416.566	1461.461	539.933	-1333.722	1055.307	889.929	-1482.948	1572.351	292.475	-1360.716	820.576	868.15	-1295.295	1712.666	293.403	-1412.702	932.325	533.851	-1377.69	904.847	603.987	-1451.528	962.797	456.073	-1313.889	510.72	542.248	-1153.754	870.513	198.421	-1458.492	148.141	555.763	-1030.078	507.752	148.366	-1332.547	29.011	539.441	-931.177	509.389	-12.987
142	9.771	-1312.379	1441.478	688.956	-1312.379	1441.478	688.956	-1249.772	1308.473	790.681	-1415.582	1461.457	538.369	-1334.532	1056.225	890.933	-1480.615	1571.415	290.239	-1360.271	821.676	866.651	-1298.711	1718.974	292.398	-1409.661	931.386	532.707	-1375.213	904.043	603.142	-1447.862	961.708	454.597	-1313.797	509.547	542.197	-1146.52	873.166	200.003	-1458.183	147.01	555.502	-1023.45	510.675	147.524	-1331.228	29.005	539.429	-936.12	508.866	-20.305
143	9.833	-1312.216	1443.271	688.607	-1312.216	1443.271	688.607	-1249.213	1310.561	790.823	-1415.261	1462.559	537.496	-1333.072	1057.855	891.669	-1480.145	1571.179	288.354	-1357.611	822.87	867.511	-1298.925	1720.039	290.013	-1408.557	932.229	532.56	-1374.13	904.933	603.144	-1446.735	962.499	454.284	-1312.759	509.875	542.502	-1142.914	875.329	201.378	-1457.785	147.07	555.657	-1013.304	514.515	149.591	-1331.509	27.979	539.931	-892.634	517.954	3.608
144	9.892	-1309.99	1446.006	687.547	-1309.99	1446.006	687.547	-1246.635	1313.433	790.221	-1412.815	1464.414	535.801	-1330.309	1060.006	890.59	-1476.293	1572.101	285.434	-1354.754	824.591	867.096	-1296.214	1722.865	287.96	-1405.226	933.751	532.034	-1370.919	906.55	602.856	-1443.271	963.917	453.495	-1310.157	510.688	542.884	-1135.13	876.501	204.987	-1458.759	148.733	556.606	-1004.171	514.536	160.957	-1333.751	28.071	539.908	-890.505	501.074	9.667
145	9.968	-1310.693	1448.042	688.862	-1310.693	1448.042	688.862	-1246.163	1315.662	791.565	-1412.846	1466.416	536.287	-1325.465	1060.025	891.378	-1474.623	1574.852	285.239	-1345.492	823.906	866.357	-1294.738	1726.491	289.228	-1404.2	934.738	532.264	-1369.916	907.488	603.261	-1442.219	964.957	453.532	-1308.52	511.016	542.898	-1132.947	877.463	205.23	-1456.927	148.189	556.405	-1003.501	514.2	161.1	-1332.412	26.587	539.475	-878.033	499.984	19.048
146	10.033	-1310.952	1448.846	689.056	-1310.952	1448.846	689.056	-1245.542	1316.659	791.589	-1413.295	1466.999	536.467	-1322.016	1059.79	890.868	-1475.981	1575.73	285.611	-1339.2	823.502	864.21	-1296.734	1728.318	289.252	-1403.531	935.151	532.224	-1369.271	907.919	603.289	-1441.525	965.351	453.416	-1307.978	511.195	543.068	-1130.908	878.502	206.226	-1456.898	148.352	556.379	-999.482	515.687	162.505	-1332.668	26.298	539.673	-869.551	502.348	24.301
147	10.091	-1314.954	1450.786	688.111	-1314.954	1450.786	688.111	-1246.842	1321.073	791.579	-1415.989	1467.115	534.601	-1320.264	1062.602	888.514	-1472.583	1576.48	282.75	-1331.415	825.752	865.018	-1290.415	1725.193	290.672	-1399.888	936.928	529.024	-1369.25	909.705	601.674	-1433.865	967.116	448.458	-1311.406	512.637	541.85	-1112.025	892.529	212.239	-1456.302	148.378	554.374	-997.984	524.657	164.131	-1334.331	23.91	540.019	-841.036	498.396	60.22
148	10.167	-1316.78	1452.099	689.869	-1316.78	1452.099	689.869	-1250.445	1322.926	795.929	-1416.931	1468.471	535.096	-1321.148	1061.821	890.647	-1468.532	1577.747	281.087	-1326.727	824.285	864.115	-1285.365	1726.351	291.328	-1396.836	935.46	530.556	-1368.609	908.792	604.697	-1428.138	965.034	448.336	-1316.18	509.998	542.12	-1103.214	899.383	211.327	-1457.966	142.945	548.892	-1005.03	524.101	176.788	-1328.9	24.482	539.377	-871.048	480.737	48.21
149	10.231	-1320.828	1452.99	686.956	-1320.828	1452.99	686.956	-1255.821	1323.51	793.371	-1418.892	1466.935	530.918	-1323.832	1063.096	890.252	-1471.222	1580.154	279.403	-1327.635	825.806	865.45	-1284.155	1721.606	302.173	-1394.726	935.188	532.706	-1368.459	909.834	607.839	-1423.854	963.304	449.387	-1317.512	512.267	541.495	-1100.262	899.65	211.376	-1456.341	144.929	549.5	-995.977	526.6	179.162	-1331.066	23.042	538.921	-854.872	480.92	59.893
